<svg width="32" height="37" viewBox="0 0 32 37" fill="none" xmlns="http://www.w3.org/2000/svg">
<path fill-rule="evenodd" clip-rule="evenodd" d="M15.6178 0.0310752C15.31 0.0786807 15.0029 0.201178 14.6948 0.399147C14.6014 0.459234 14.2996 0.638916 14.024 0.798472C13.7486 0.958124 13.2323 1.2573 12.8767 1.4634C12.3305 1.78 11.6144 2.19422 10.1355 3.0488C9.99529 3.12988 9.81493 3.23457 9.73481 3.2815C9.65469 3.32843 9.37187 3.49215 9.10646 3.64532C8.84095 3.79839 8.55822 3.96211 8.47811 4.00904C8.39799 4.05596 8.16848 4.1891 7.96809 4.30483C7.7678 4.42045 7.42353 4.61929 7.20311 4.74653C6.98279 4.87387 6.74921 5.00923 6.68409 5.04736C6.61898 5.08558 6.34031 5.24716 6.06484 5.40653C5.78936 5.56579 5.32211 5.83623 5.02661 6.0074C4.73111 6.17857 4.07547 6.55796 3.56952 6.85046C2.39244 7.53107 1.98228 7.76851 1.66626 7.95255C1.52596 8.03421 1.34164 8.14075 1.25649 8.18941C0.584788 8.57316 0.158661 9.16175 0.044969 9.86306C0.00374965 10.1173 0.00433025 16.3124 0.0455496 16.2966C0.0688686 16.2877 1.25813 15.5836 1.51145 15.4289C1.55654 15.4014 1.8803 15.2085 2.23085 15.0003C2.58151 14.7921 2.96671 14.5627 3.08688 14.4907C3.20715 14.4187 3.61277 14.177 3.98848 13.9536C4.3641 13.7303 4.76981 13.4887 4.88999 13.4166C5.01026 13.3446 5.35443 13.1398 5.65496 12.9614C5.9555 12.7831 6.27925 12.5902 6.37446 12.533C6.46958 12.4757 6.85478 12.2465 7.23049 12.0235C7.60611 11.8005 7.95038 11.5954 7.99547 11.5679C8.04046 11.5402 8.38473 11.3351 8.76035 11.1119C9.13607 10.8888 9.54178 10.6473 9.66195 10.5752C9.78213 10.5031 10.278 10.208 10.7638 9.91947C11.2498 9.63093 11.7456 9.33582 11.8658 9.26363C11.986 9.19145 12.3917 8.94965 12.7673 8.72633C14.1555 7.90098 14.6568 7.60102 15.1454 7.3031C15.4693 7.10562 15.9297 7.02221 16.2843 7.09671C16.6124 7.1657 16.6292 7.17373 17.2752 7.56464C17.4656 7.67978 17.9491 7.9688 18.3498 8.20693C18.7505 8.44495 19.1357 8.67456 19.2058 8.71714C19.2759 8.75961 19.6611 8.98932 20.0618 9.22754C21.6122 10.1493 22.1461 10.467 22.3567 10.5931C22.6621 10.776 23.9654 11.5521 24.8338 12.0681C25.2345 12.3062 25.6197 12.5357 25.6898 12.5782C25.76 12.6206 26.0632 12.8012 26.3637 12.9796C26.6643 13.1579 27.0084 13.3628 27.1287 13.4349C27.3707 13.5801 28.7555 14.4046 29.1413 14.6333C29.2765 14.7134 29.4855 14.8379 29.6057 14.9099C29.7259 14.9818 29.9964 15.1432 30.2068 15.2684C30.4172 15.3936 30.8941 15.6776 31.2666 15.8997C31.6391 16.1216 31.9529 16.3033 31.9639 16.3033C32.0078 16.3033 31.9783 9.96475 31.9335 9.77375C31.7711 9.08192 31.3703 8.53388 30.7987 8.22173C30.6586 8.1452 30.1464 7.85202 29.7878 7.64302C29.6476 7.56135 29.4141 7.42599 29.2687 7.34239C29.1235 7.25869 28.9104 7.13561 28.7952 7.06875C28.68 7.00199 28.4505 6.86904 28.2853 6.77344C28.1199 6.67784 27.7101 6.4404 27.3746 6.24581C27.039 6.05123 26.5718 5.78069 26.3364 5.64455C26.101 5.50841 25.4658 5.14073 24.9248 4.82752C24.3839 4.51431 23.7569 4.15175 23.5315 4.0219C23.3061 3.89205 22.9987 3.71421 22.8485 3.62684C22.5364 3.44522 22.3494 3.33695 21.8741 3.06254C21.6888 2.95562 21.3773 2.77526 21.182 2.66166C20.9866 2.54817 20.751 2.41154 20.6583 2.35803C20.5657 2.30453 20.41 2.21444 20.3123 2.15784C20.2146 2.10133 20.0118 1.98396 19.8615 1.89707C19.7113 1.81018 19.4797 1.67617 19.347 1.59925C19.2142 1.52223 18.9971 1.39644 18.8643 1.31971C18.7316 1.24289 18.5574 1.14206 18.4773 1.09562C18.3972 1.04917 18.1636 0.914195 17.9582 0.795762C17.7529 0.677329 17.4564 0.503259 17.2993 0.408823C16.6987 0.0478144 16.214 -0.0610395 15.6178 0.0310752Z" fill="#FC6464"/>
<path fill-rule="evenodd" clip-rule="evenodd" d="M15.7991 13.58C15.7891 13.5832 15.7219 13.5994 15.6498 13.616C15.4879 13.6531 15.4013 13.6985 14.761 14.0808C14.4805 14.2482 13.8002 14.6543 13.2492 14.9831C12.6983 15.3119 12.0262 15.7133 11.7557 15.8751C11.4853 16.0369 10.8746 16.4013 10.3989 16.6849C9.92301 16.9686 9.41483 17.272 9.2696 17.3594C8.60196 17.7607 8.05034 18.0883 8.04182 18.0883C8.03669 18.0883 7.94409 18.0338 7.83601 17.9673C7.72793 17.9007 7.60263 17.824 7.55754 17.7967C7.51245 17.7694 7.36606 17.68 7.23214 17.598C7.09832 17.5159 6.98521 17.4524 6.98086 17.4567C6.97109 17.4665 7.04404 17.7112 7.45701 19.0535C7.52019 19.2588 7.6185 19.5826 7.67549 19.7729C7.73248 19.9633 7.8065 20.2051 7.83998 20.3102C7.87346 20.4154 7.938 20.6244 7.98328 20.7747C8.02866 20.9249 8.09204 21.135 8.12426 21.2415L8.1828 21.4352L8.40293 21.4558C8.65392 21.4792 9.43031 21.5497 10.0346 21.604C10.2599 21.6242 10.6247 21.6574 10.845 21.6778C11.0654 21.6982 11.5572 21.7425 11.9379 21.7762C12.3186 21.8099 12.7734 21.8511 12.9488 21.8678C13.4386 21.9143 14.5698 22.0142 14.5698 22.0108C14.5698 22.005 14.2979 21.8407 13.8958 21.6033C13.3025 21.2532 13.2958 21.2491 13.2958 21.2391C13.2958 21.2342 13.3673 21.1876 13.4546 21.1359C13.542 21.084 13.843 20.9045 14.1235 20.7369C14.404 20.5694 14.658 20.4182 14.6881 20.4011C14.8342 20.3175 15.2144 20.0853 15.3475 19.9982C15.969 19.5917 16.016 19.5891 16.5581 19.9291C16.7207 20.0312 16.8788 20.1289 16.9093 20.1462C16.9752 20.1838 17.1232 20.2727 17.2744 20.3658C17.3346 20.4027 17.5066 20.5046 17.6569 20.5921C17.8071 20.6796 17.971 20.7782 18.0212 20.8111C18.0713 20.844 18.1368 20.8844 18.1669 20.9008C18.197 20.9171 18.2544 20.9507 18.2944 20.9754C18.3345 21.0002 18.4164 21.0487 18.4765 21.0833C18.5366 21.118 18.6801 21.2038 18.7952 21.274C19.0278 21.4159 19.2767 21.5645 19.3325 21.5949C19.3526 21.6058 19.5329 21.7132 19.7332 21.8336C19.9336 21.9541 20.3434 22.1986 20.6439 22.377C20.9445 22.5554 21.2395 22.732 21.2996 22.7695C21.3597 22.8069 21.5114 22.8983 21.6366 22.9727C22.0354 23.2098 22.246 23.3353 22.274 23.3528C22.344 23.3966 22.6981 23.6069 22.7017 23.6069C22.7039 23.6069 22.7787 23.6517 22.8678 23.7064C22.9569 23.7611 23.0791 23.8349 23.1391 23.8704C23.1992 23.9058 23.2858 23.9574 23.3315 23.9848C23.3773 24.0124 23.6086 24.1456 23.8457 24.2808C24.0828 24.416 24.2768 24.5308 24.2769 24.5358C24.277 24.5452 24.2223 24.5772 23.1573 25.1915C22.8068 25.3938 22.4667 25.5905 22.4016 25.6286C22.2826 25.6983 21.7024 26.0336 21.2268 26.3076C21.0865 26.3884 20.8489 26.5261 20.6986 26.6136C20.4221 26.7745 19.4322 27.3463 19.0138 27.5867C18.8886 27.6586 18.6755 27.7817 18.5403 27.8602C18.405 27.9387 18.1714 28.074 18.0212 28.1609C17.3573 28.5447 17.262 28.6008 17.0468 28.7347C16.4643 29.0966 15.9657 29.1655 15.4164 28.96C15.3149 28.922 15.2708 28.8984 14.9431 28.7064C14.853 28.6536 14.6275 28.5229 14.4422 28.4158C14.2569 28.3089 13.9987 28.1596 13.8685 28.084C13.7383 28.0085 13.4474 27.8402 13.2219 27.7101C12.9966 27.58 12.7302 27.4261 12.6299 27.368C12.5298 27.31 12.3126 27.1847 12.1473 27.0895C11.982 26.9943 11.6747 26.8166 11.4643 26.6947C11.2539 26.5728 10.9138 26.376 10.7085 26.2575C10.2201 25.9758 9.86447 25.7702 9.24231 25.41C8.96181 25.2477 8.61754 25.0488 8.47733 24.9681C8.33703 24.8873 8.15677 24.7827 8.07665 24.7355C7.99644 24.6884 7.76287 24.5532 7.55754 24.4354C7.35222 24.3174 7.02846 24.1307 6.83814 24.0204C6.43156 23.7847 6.25236 23.6811 5.84549 23.447C5.68022 23.3519 5.45071 23.219 5.33547 23.1519C5.22033 23.0847 4.77359 22.8264 4.34282 22.5776C3.91214 22.3289 3.43677 22.0542 3.2865 21.9671C2.71572 21.6364 2.64296 21.5943 2.42138 21.467C2.29607 21.395 1.89859 21.1653 1.53797 20.9566C1.17735 20.7479 0.697904 20.4708 0.472455 20.3412C0.247103 20.2114 0.0522306 20.097 0.0394584 20.0868C0.0266862 20.0767 0.012269 20.0723 0.00733433 20.0772C-0.0189841 20.1036 0.031911 26.3511 0.0593905 26.4664C0.231041 27.1856 0.664909 27.7282 1.33816 28.0652C1.48988 28.1411 1.58296 28.194 2.88553 28.9433C3.3164 29.1912 3.88205 29.5165 4.14253 29.6663C4.403 29.816 4.866 30.0825 5.17156 30.2583C5.47713 30.4341 5.86232 30.6556 6.02759 30.7504C6.19285 30.8453 6.46339 31.0009 6.62866 31.0964C6.79392 31.1918 7.1259 31.3828 7.36625 31.5208C7.9798 31.8732 8.329 32.074 8.75503 32.3192C9.23554 32.5957 9.75233 32.893 10.2167 33.1596C10.4221 33.2776 10.754 33.4687 10.9544 33.5842C11.1547 33.6998 11.5563 33.9308 11.8468 34.0976C12.1373 34.2645 12.6004 34.5308 12.8759 34.6895C13.514 35.057 14.3702 35.549 14.734 35.7572C15.633 36.2717 16.4483 36.2709 17.3018 35.7548C17.3969 35.6972 17.7289 35.5043 18.0394 35.326C18.6262 34.989 19.016 34.7649 19.97 34.2159C20.2806 34.0371 20.7437 33.7707 20.9991 33.6238C21.2546 33.4769 21.6295 33.2612 21.8323 33.1445C22.3741 32.8327 22.8644 32.5508 23.3577 32.2675C23.5982 32.1295 23.9301 31.9384 24.0954 31.843C24.2607 31.7476 24.5844 31.5614 24.8148 31.4293C25.0452 31.2971 25.4755 31.0499 25.771 30.8799C26.0665 30.7099 26.5337 30.4412 26.8092 30.2828C27.0847 30.1244 27.4411 29.9192 27.6015 29.8268C28.1291 29.5225 28.7651 29.157 28.8855 29.0888C28.9506 29.0519 29.1596 28.9319 29.3499 28.822C29.9453 28.4785 30.5824 28.1152 30.7336 28.0333C31.3951 27.6747 31.8388 27.0702 31.9511 26.3747C31.9795 26.198 32.018 20.0917 31.9906 20.0917C31.981 20.0917 31.535 20.3467 31.1622 20.5654C30.9707 20.6776 29.7955 21.3554 29.6946 21.4118L29.602 21.4635L28.7839 20.9746C28.3339 20.7058 27.7445 20.3535 27.4739 20.1917C27.2035 20.03 26.8101 19.7951 26.5997 19.6697C25.6811 19.1219 23.7359 17.9605 23.4943 17.8156C23.3491 17.7284 23.0582 17.5545 22.8477 17.4292C22.3082 17.1079 21.3523 16.5372 20.4891 16.0211C20.0834 15.7785 19.3007 15.3112 18.7498 14.9825C18.1987 14.6539 17.5227 14.2502 17.2474 14.0854C16.6388 13.7213 16.518 13.6598 16.315 13.61C16.1749 13.5757 15.8683 13.5578 15.7991 13.58Z" fill="#6CCCF4"/>
</svg>
