<svg width="28" height="28" viewBox="0 0 28 28" fill="none" xmlns="http://www.w3.org/2000/svg">
<g clip-path="url(#clip0)">
<g filter="url(#filter0_d)">
<path d="M14 25.6667C15.2833 25.6667 16.3333 24.6167 16.3333 23.3333H11.6667C11.6667 24.6167 12.705 25.6667 14 25.6667ZM21 18.6667V12.8333C21 9.25166 19.0867 6.25332 15.75 5.45999V4.66666C15.75 3.69832 14.9683 2.91666 14 2.91666C13.0317 2.91666 12.25 3.69832 12.25 4.66666V5.45999C8.90166 6.25332 6.99999 9.23999 6.99999 12.8333V18.6667L4.66666 21V22.1667H23.3333V21L21 18.6667Z" fill="#606060"/>
<path d="M20.5 18.6667V18.8738L20.6464 19.0202L22.8333 21.2071V21.6667H5.16666V21.2071L7.35354 19.0202L7.49999 18.8738V18.6667V12.8333C7.49999 9.41436 9.29384 6.67424 12.3653 5.94652L12.75 5.85537V5.45999V4.66666C12.75 3.97447 13.3078 3.41666 14 3.41666C14.6922 3.41666 15.25 3.97447 15.25 4.66666V5.45999V5.85505L15.6343 5.94643C18.6948 6.67409 20.5 9.42647 20.5 12.8333V18.6667ZM15.7634 23.8333C15.544 24.6001 14.8341 25.1667 14 25.1667C13.1574 25.1667 12.4528 24.6009 12.2357 23.8333H15.7634Z" stroke="black"/>
</g>
</g>
<defs>
<filter id="filter0_d" x="0.666656" y="2.91666" width="26.6667" height="30.75" filterUnits="userSpaceOnUse" color-interpolation-filters="sRGB">
<feFlood flood-opacity="0" result="BackgroundImageFix"/>
<feColorMatrix in="SourceAlpha" type="matrix" values="0 0 0 0 0 0 0 0 0 0 0 0 0 0 0 0 0 0 127 0"/>
<feOffset dy="4"/>
<feGaussianBlur stdDeviation="2"/>
<feColorMatrix type="matrix" values="0 0 0 0 0 0 0 0 0 0 0 0 0 0 0 0 0 0 0.25 0"/>
<feBlend mode="normal" in2="BackgroundImageFix" result="effect1_dropShadow"/>
<feBlend mode="normal" in="SourceGraphic" in2="effect1_dropShadow" result="shape"/>
</filter>
<clipPath id="clip0">
<rect width="28" height="28" fill="white"/>
</clipPath>
</defs>
</svg>
